<svg id="Layer_1" data-name="Layer 1" xmlns="http://www.w3.org/2000/svg" viewBox="0 0 296.33 58.39"><defs><style>.cls-1{fill:#6b63ff;}</style></defs><title>dcoders</title><path class="cls-1" d="M96.67,224.86H113.3v7.78h-9.07l.07,42.7h9v7.77H96.67Zm5,5h9.08v-2.45H99.26v52.93h11.45v-2.45l-9.08-.07Z" transform="translate(-96.67 -224.86)"/><path class="cls-1" d="M136.66,266.54h-5.12v2.6h5.12c4,0,9-3.39,11.59-8.21a15,15,0,0,0,1.94-7.2,16.56,16.56,0,0,0-6.91-13.33,12,12,0,0,0-6.62-2.08l-15.48.07.07,35.79h2.59V240.91l12.82-.07c3.24,0,7.41,2.88,9.43,6.69a13.12,13.12,0,0,1,1.51,6.2,13.88,13.88,0,0,1-3.6,8.78C141.77,265,139,266.54,136.66,266.54Z" transform="translate(-96.67 -224.86)"/><path class="cls-1" d="M182.53,262.72c-4.54,3-6.77,3.82-9.86,3.82a12.72,12.72,0,0,1-10.73-6.41,11.15,11.15,0,0,1-1.8-6.12,12.57,12.57,0,0,1,12.53-12.6,12.17,12.17,0,0,1,7.27,2.3,6.35,6.35,0,0,1,1.29,1l1.08.79,4.83-5.68-.79-.8a11.32,11.32,0,0,0-1.95-1.44,18.86,18.86,0,0,0-11.73-3.89,20.39,20.39,0,0,0-14.33,5.91,23.54,23.54,0,0,0-1.6,1.89,23.89,23.89,0,0,0-1.22-2.07,22.58,22.58,0,0,1,5.91-4.93,21.89,21.89,0,0,1,11.24-3,22.22,22.22,0,0,1,15.19,5.91l.43.36.58.57,1.8-1.87-1-1a25.63,25.63,0,0,0-17-6.48,24.68,24.68,0,0,0-18.7,8.36q-.6-.74-1.26-1.44c-4.32-4.54-9.86-7.2-15.26-7.2h-21.1v2.59l21.1.07c6.7,0,13.32,4.54,17.06,11.59a23.9,23.9,0,0,1,2.74,10.88A22.59,22.59,0,0,1,147,273a16.93,16.93,0,0,1-9.58,3.31H118.94V235.87l17.93.07c5.26,0,10.37,3.46,13.32,9.14a19.06,19.06,0,0,1,2.16,8.72,18.26,18.26,0,0,1-5.25,12.45c-3.17,3.17-7,5.19-10.15,5.19h-8.21l.07-28.44h-2.52l-.07,29.74V274H137c4,0,8.56-2.23,12.09-6A21,21,0,0,0,155,253.8a21.53,21.53,0,0,0-5.69-14.4c-4-4-8.28-6.12-12.39-6.12H116.35v45.65h21.1c5.18,0,10.8-2.67,15.05-7.2.43-.45.85-.92,1.25-1.4a25.64,25.64,0,0,0,6.46,5.43,24.33,24.33,0,0,0,12.46,3.38c5.68,0,10.44-1.8,16.85-6.19l1-.65L183.68,262Zm-22.39-21.17a17.39,17.39,0,0,1,12.53-5.25A18.36,18.36,0,0,1,183,239.61l.58.5-1.59,1.8a1.17,1.17,0,0,1-.5-.28,15.45,15.45,0,0,0-8.78-2.74,14.7,14.7,0,0,0-13,7.56c-.22.38-.4.77-.58,1.15a27.11,27.11,0,0,0-1.07-3.42A17.25,17.25,0,0,1,160.14,241.55Zm12.53,34.93a22.57,22.57,0,0,1-17.37-8.19c.45-.66.86-1.34,1.25-2a18.64,18.64,0,0,0,1.79,2.09,20.2,20.2,0,0,0,14.33,6,19.82,19.82,0,0,0,10.87-3.24l-1.44-2.16a16.73,16.73,0,0,1-9.43,2.88,17.85,17.85,0,0,1-14.86-8.15,26.89,26.89,0,0,0,1.17-3.52,16.26,16.26,0,0,0,6.27,7,14.71,14.71,0,0,0,7.42,2.08c3.38,0,6.12-1,10.22-3.6l4,6C181.67,275,177.56,276.48,172.67,276.48Z" transform="translate(-96.67 -224.86)"/><path class="cls-1" d="M214.57,238.24a15.44,15.44,0,0,0-7.92,2,15.67,15.67,0,0,0-7.85,13.61,15.07,15.07,0,0,0,2.16,7.77,15.55,15.55,0,0,0,13.61,7.92,15,15,0,0,0,7.85-2.16A15.23,15.23,0,0,0,230,253.87a15.32,15.32,0,0,0-15.41-15.63Zm11.23,22A13.15,13.15,0,0,1,208,265a12.83,12.83,0,0,1-6.48-11.16,12.15,12.15,0,0,1,1.8-6.48,13.19,13.19,0,0,1,11.3-6.56,12.89,12.89,0,0,1,6.48,1.73,13.19,13.19,0,0,1,4.75,17.72Z" transform="translate(-96.67 -224.86)"/><path class="cls-1" d="M214.57,228.59A25.12,25.12,0,0,0,202,232a25.47,25.47,0,0,0-12.82,21.89,24.22,24.22,0,0,0,3.46,12.53,25.85,25.85,0,0,0,21.89,12.74,24.56,24.56,0,0,0,12.6-3.46,25.77,25.77,0,0,0,12.67-21.81,25.18,25.18,0,0,0-3.38-12.53A25.56,25.56,0,0,0,214.57,228.59Zm19.73,36.65a22.61,22.61,0,0,1-19.73,11.31,22.24,22.24,0,0,1-11.38-3,22.5,22.5,0,0,1-11.3-19.65,22.74,22.74,0,0,1,3-11.45,22.75,22.75,0,0,1,42.42,11.45A22.17,22.17,0,0,1,234.3,265.24Z" transform="translate(-96.67 -224.86)"/><path class="cls-1" d="M214.57,233.56A20.19,20.19,0,0,0,194,253.87a19.28,19.28,0,0,0,2.8,10.15,20.8,20.8,0,0,0,17.79,10.22,20.3,20.3,0,0,0,20.31-20.37,22.13,22.13,0,0,0-2.52-10.52C228.9,237.16,222.42,233.56,214.57,233.56ZM230,262.72a17.64,17.64,0,0,1-15.41,9,16.72,16.72,0,0,1-8.93-2.44,17.82,17.82,0,0,1-8.93-15.41,17.64,17.64,0,0,1,2.38-9,18,18,0,0,1,15.48-8.79,18.45,18.45,0,0,1,8.93,2.31,17.68,17.68,0,0,1,8.86,15.48A17.38,17.38,0,0,1,230,262.72Z" transform="translate(-96.67 -224.86)"/><path class="cls-1" d="M265,228.81h-21.1v2.59l21.1.07c6.7,0,13.32,4.54,17.06,11.6a23.83,23.83,0,0,1,2.74,10.87,22.59,22.59,0,0,1-10.22,19.15A17,17,0,0,1,265,276.4H246.46V236l17.93.07c5.26,0,10.37,3.46,13.32,9.15a19,19,0,0,1,2.16,8.71,18.3,18.3,0,0,1-5.25,12.46c-3.17,3.16-7,5.18-10.16,5.18h-8.2l.07-28.44h-2.52l-.07,29.74v1.29h10.72c4,0,8.57-2.23,12.1-6a21,21,0,0,0,5.91-14.26,21.53,21.53,0,0,0-5.69-14.4c-4-4-8.28-6.12-12.39-6.12H243.87v45.65H265c5.18,0,10.8-2.67,15-7.2a26,26,0,0,0,.21-35.86C275.91,231.47,270.37,228.81,265,228.81Z" transform="translate(-96.67 -224.86)"/><path class="cls-1" d="M264.18,266.68h-5.12v2.6h5.12c4,0,9-3.39,11.59-8.21a15,15,0,0,0,1.94-7.2,16.52,16.52,0,0,0-6.91-13.32,12,12,0,0,0-6.62-2.09l-15.48.07.07,35.79h2.59V241.05l12.82-.07c3.24,0,7.41,2.88,9.43,6.69a13.12,13.12,0,0,1,1.51,6.2,13.88,13.88,0,0,1-3.6,8.78C269.29,265.17,266.55,266.68,264.18,266.68Z" transform="translate(-96.67 -224.86)"/><polygon class="cls-1" points="221.87 27.42 205.09 27.42 205.09 6.61 227.42 6.61 227.42 13.74 212.73 13.74 212.73 16.33 230.01 16.33 230.01 4.02 202.5 4.02 202.5 30.02 221.87 30.02 221.87 27.42"/><polygon class="cls-1" points="225.26 46.87 205.09 46.87 205.09 34.91 226.98 34.91 226.98 22.53 210.06 22.53 210.06 11.37 224.9 11.37 224.9 8.77 207.47 8.77 207.47 25.12 224.39 25.12 224.39 32.32 202.5 32.32 202.5 49.46 225.26 49.46 225.26 46.87"/><polygon class="cls-1" points="210.06 37.58 207.47 37.58 207.47 44.49 227.78 44.49 227.78 51.69 200.2 51.69 200.2 4.02 197.6 4.02 197.6 54.28 230.37 54.28 230.37 41.9 210.06 41.9 210.06 37.58"/><polygon class="cls-1" points="265.14 35.7 262.77 36.64 270.76 51.69 262.48 51.69 252.54 33.18 245.85 33.26 245.85 51.69 238.57 51.69 238.57 3.88 235.98 3.88 235.98 54.28 248.51 54.28 248.51 35.78 251.03 35.78 260.89 54.28 275.08 54.28 265.14 35.7"/><path class="cls-1" d="M340.13,231.33h10.16c10.44,0,16.34,4.68,16.34,13.25,0,7.77-4.68,12.53-12.81,13.39l-1.95.22,9,16.63h2.95L356,260.2c8.64-1.51,13.24-6.77,13.24-15.62a17.19,17.19,0,0,0-1.87-8c-2.88-5.11-8.78-7.84-17.06-7.84H337.54v46h2.59Z" transform="translate(-96.67 -224.86)"/><path class="cls-1" d="M349.71,253.29h-7.2v2.52h7.2c9.87,0,14.55-3.38,14.55-10.87,0-7.13-4.9-11.16-12.75-11.16h-9.07v7.56h8.28c3.82,0,5.76,1.08,5.76,3.24,0,2.52-2.38,3.74-7.2,3.74H345.1v-4.46h-2.66v7h6.84c6.41,0,9.79-2.23,9.79-6.33a4.72,4.72,0,0,0-.93-3.1c-1.23-1.8-3.68-2.66-7.42-2.66H345.1v-2.45h6.41c6.41,0,10.15,3.1,10.15,8.57C361.66,250.63,357.85,253.29,349.71,253.29Z" transform="translate(-96.67 -224.86)"/><path class="cls-1" d="M376.37,283.25v-7.77h9l.07-42.7h-9.07V225H393v58.25ZM379,227.59V230H388v48l-9.07.07v2.45h11.45V227.59Z" transform="translate(-96.67 -224.86)"/></svg>